<svg width="24mm" height="24mm" version="1.1" viewBox="0 0 24 24" xmlns="http://www.w3.org/2000/svg" xmlns:xlink="http://www.w3.org/1999/xlink">
 <text transform="matrix(.26 0 0 .26 11 13)" style="fill:#000000;font-family:Gidugu;font-size:53px;paint-order:stroke fill markers;shape-inside:url(#rect31988);white-space:pre" xml:space="preserve"/>
 <path d="m12 0.5c-1.8 2.3e-4 -3.7 0.45-5.2 1.3 0.051 0.14 0.076 0.31 0.076 0.45-2.9e-4 0.72-0.59 1.3-1.3 1.3-0.33-0.0021-0.65-0.15-0.86-0.41-2.5 2.3-4.1 5.5-4.1 8.8 1.5 6.2 7.3 11 11 12 4.5 0.047 7.6-2.3 9.6-5.3 1-1.8 1.7-3.9 1.7-6.2 2.7e-4 -6.4-3.9-11-11-12zm7.4 4.7c0.78-5.3e-4 1.4 0.72 1.4 1.6-1.6e-4 0.9-0.65 1.6-1.4 1.6-0.78-1.2e-4 -1.4-0.72-1.4-1.6 1.7e-4 -0.9 0.63-1.6 1.4-1.6zm-7.2 3.9c1.1 6.2e-5 2 0.92 2 2.1 6.9e-5 1.1-0.9 2.1-2 2.1-1.1 5.1e-4 -2-0.92-2-2.1 5.3e-4 -1.1 0.9-2.1 2-2.1z" style='class:"land";fill:#fff;paint-order:stroke fill markers;stroke-width:2'/>
 <path d="m11 0.57c0.22 0.2 0.18 0.48-0.15 0.79-0.38 0.36-0.99 0.58-1.8 0.7-0.94 0.12-1.3 0.31-1.4 0.8-0.038 0.19-0.0026 0.31 0.15 0.48l0.21 0.23 1.1-0.025c0.93-0.02 1.1-0.0051 1.3 0.11 0.6 0.54-0.79 2.5-2.2 3.1-0.21 0.077-0.82 0.23-1.4 0.34-1.2 0.23-1.8 0.54-2.4 1.1-0.26 0.28-0.35 0.44-0.35 0.64 0 0.39 0.24 0.64 1.1 1.1 0.88 0.5 1.2 0.8 1.1 1.2-0.014 0.14-0.093 0.29-0.18 0.34-0.12 0.074-0.18 0.047-0.38-0.16-0.29-0.35-0.57-0.47-1.7-0.76-1-0.28-1.2-0.35-1.3-0.55-0.044-0.082-0.12-0.55-0.17-1-0.1-0.99-0.14-1.2-0.26-1.2-0.13 0-0.24 0.38-0.24 0.82 0 0.26-0.051 0.45-0.15 0.58l-0.15 0.19-0.22-0.19c-0.22-0.19-0.54-1-0.56-1.4-1.2 3.2-0.69 6.7 0.6 9.8 0.29 0.6 1.2 2 2.5 3.2 1.3 1.1 2.5 2.2 5.7 2.8 1.2 0.2 2.8 0.2 4 0.0054 0.93-0.16 1.7-0.35 2.4-0.66 2.1-0.99 3.8-2.6 5-4.5-0.097-0.25-0.26-0.51-0.5-0.8-0.36-0.42-0.36-0.61-0.047-1.1 0.14-0.19 0.28-0.45 0.31-0.58 0.046-0.23 0.011-0.29-0.32-0.6-0.61-0.57-0.65-0.66-0.51-1.3 0.13-0.67 0.069-0.96-0.24-1.1-0.1-0.044-0.53-0.12-0.93-0.18-0.4-0.05-0.88-0.11-1.1-0.13-0.19-0.026-0.44 0.011-0.68 0.098-0.69 0.26-1.5 0.057-1.8-0.45-0.15-0.29-0.082-1.3 0.14-1.8 0.099-0.22 0.33-0.54 0.51-0.7 0.22-0.19 0.32-0.32 0.4-0.63 0.56-0.23 1-0.16 1-0.16s1.3 0.29 1.7-0.88c-0.022 0.0038-0.046 7e-3 -0.068 0.0096-0.72-5e-4 -1.3-0.6-1.3-1.3 0.11-1.1 1.1-1.1 1.1-1.8-0.096-0.7 0.75 0.23 0.24-0.86-0.14-0.29-0.22-0.58-0.21-0.67 0.033-0.11 0.24-0.25 0.44-0.32-1.9-1.6-4.6-2.6-7.2-2.8-0.043-2.2e-4 -0.085-3.6e-4 -0.13 0-0.8-0.015-1.3 0.035-0.99 0.19zm9.2 4.8c-0.068 5e-3 -0.14 0.042-0.21 0.089 0.31 0.25 0.49 0.64 0.49 1.1-4.7e-4 0.36-0.14 0.7-0.39 0.95 0.12 0.085 0.36 0.36 0.56 0.66 0.49 0.7 0.79 0.89 1.5 0.95 0.19 0.015 0.39 0.0055 0.58-0.02-0.11-0.53-0.25-1.1-0.42-1.6-0.72-0.16-1-0.39-1.2-0.9-0.25-0.66-0.42-1.1-0.93-1.2-0.0039 7.3e-5 -0.0074-2.9e-4 -0.011 0zm-8.5 3.8c0.017-4.2e-4 0.032-4.3e-6 0.049 0 1 3.6e-4 1.9 0.89 1.9 2-3.5e-4 1.1-0.85 2-1.9 2-1 2.2e-4 -1.9-0.89-1.9-2-2.1e-4 -1.1 0.82-1.9 1.8-2zm-2.9 2.3c0.53-4.1e-4 0.78 0.19 1.1 0.8 0.32 0.63 0.58 0.79 1.3 0.79 0.42 0.85 1.2 1.6 1.2 1.6s0.26-0.29 0.56-0.7c0.32 0.51 0.57 1.1 0.58 1.6 0.0054 0.58-0.28 0.86-1 1.1-1.5 0.36-1.5 0.35-1.2 1.3 0.35 1 0.31 1.2-0.64 1.9-0.26 0.2-0.31 0.26-0.31 0.57 0.0021 0.19 0.053 0.53 0.11 0.74 0.14 0.51 0.093 0.67-0.24 0.88-0.28 0.18-0.42 0.19-0.68 0.077-0.43-0.18-0.89-1-1.1-2-0.047-0.22-0.12-1.1-0.15-2-0.039-0.88-0.12-1.8-0.17-1.9-0.13-0.35-0.51-0.76-0.96-1-0.93-0.54-0.99-1.9-0.13-2.8 0.35-0.38 1.2-0.74 1.7-0.76 0.018-4.1e-4 0.035-1e-3 0.051-0.0011z" style=""/>
 <path d="m13 16c2.7 0.84 7.6-2.1 6.1-4.9l-0.078 0.018" style="fill:none;paint-order:stroke fill markers;stroke-dasharray:0.81443, 0.81443;stroke-linecap:round;stroke-linejoin:round;stroke-width:.4;stroke:#f00"/>
 <path d="m12 8.8c-1.3 0-2.3 1.1-2.3 2.5 0 1.9 2.3 4.7 2.3 4.7s2.3-2.9 2.3-4.7c4e-6 -1.4-1.1-2.5-2.3-2.5zm0.0067 0.97a1.5 1.5 0 0 1 1.5 1.5 1.5 1.5 0 0 1-1.5 1.5 1.5 1.5 0 0 1-1.5-1.5 1.5 1.5 0 0 1 1.5-1.5z" style="fill:#f00;stroke-width:2"/>
 <path d="m5.9 0.57c-0.86 0-1.5 0.72-1.5 1.6 0 1.2 1.5 3.1 1.5 3.1s1.5-1.8 1.5-3.1c3.9e-6 -0.88-0.68-1.6-1.5-1.6zm0.0043 0.62a0.94 0.97 0 0 1 0.94 0.97 0.94 0.97 0 0 1-0.94 0.97 0.94 0.97 0 0 1-0.94-0.97 0.94 0.97 0 0 1 0.94-0.97z" style="fill:#f00;stroke-width:2"/>
 <path d="m20 4.7c-0.86 0-1.5 0.72-1.5 1.6 0 1.2 1.5 3.1 1.5 3.1s1.5-1.8 1.5-3.1c0-0.9-0.68-1.6-1.5-1.6zm0.0043 0.62a0.94 0.99 0 0 1 0.94 0.99 0.94 0.99 0 0 1-0.94 0.99 0.94 0.99 0 0 1-0.94-0.99 0.94 0.99 0 0 1 0.94-0.99z" style="fill:#f00;stroke-width:2"/>
</svg>
