<svg width="79.033mm" height="45.824mm" version="1.1" viewBox="0 0 79.033 45.824" xmlns="http://www.w3.org/2000/svg">
 <g transform="translate(-80.101 -110.97)">
  <path d="m80.424 156.51c-0.84207-0.56783 0.01128-0.98584 2.0128-0.98584h2.014v-43.12l-1.9511-0.0932c-1.5936-0.0761-1.9709-0.19713-2.0593-0.66085-0.1035-0.54307 0.49415-0.56255 13.755-0.44841l13.863 0.11936 2.9367 0.84512c4.6287 1.332 7.6826 3.0766 10.006 5.7157l1.2846 1.4593v-6.9358l-1.7949-0.0939c-1.4031-0.0733-1.8172-0.21114-1.8972-0.63152-0.0946-0.49679 0.58059-0.54441 8.8648-0.62536l8.9671-0.0875 0.53861 0.78169c0.29622 0.42995 1.8477 3.3144 3.4476 6.4099 5.9855 11.58 12.803 24.576 13.028 24.832 0.0628 0.0717 0.11409-6.7804 0.11409-15.227v-15.357l-1.6386-0.0946c-1.2665-0.073-1.6623-0.21879-1.7427-0.64171-0.0952-0.50094 0.28289-0.54718 4.4757-0.54718 4.1928 0 4.5709 0.0462 4.4756 0.54718-0.0821 0.43164-0.48317 0.567-1.899 0.64096l-1.7949 0.0939v44.386l-9.1336-0.173-5.301-10.006c-2.9156-5.5032-6.0799-11.483-7.0319-13.289-6.8966-13.081-9.6505-18.135-9.8819-18.135-0.54536 0-0.0677 7.885 0.67238 11.1 0.64056 2.7827 0.70146 3.6602 0.55339 7.9733-0.113 3.2931-0.37083 5.6984-0.80418 7.5043-0.50342 2.0978-0.63947 3.7229-0.64582 7.7132-4e-3 2.7805 0.0773 5.278 0.18178 5.55 0.14101 0.36755 0.62886 0.4946 1.899 0.4946 1.4595 0 1.6938 0.0799 1.6038 0.54719-0.0944 0.49-0.56203 0.54718-4.4743 0.54718-3.8615 0-4.3808-0.0617-4.4712-0.53098-0.0852-0.44221 0.20166-0.54678 1.7154-0.62537l1.8177-0.0943 0.1484-8.1296-0.68305 0.93804c-1.9843 2.725-5.7132 5.2674-9.6127 6.554-4.8062 1.5857-6.8399 1.7885-19.401 1.9343-6.9522 0.0808-11.901 0.0182-12.156-0.15449zm21.471-1.2828c5.5059-0.79621 8.2162-4.107 9.4748-11.574 0.58537-3.4728 0.64036-4.7672 0.5048-11.882-0.1261-6.6162-0.25962-8.4054-0.77938-10.441-1.684-6.5963-4.6181-8.9558-11.137-8.9558h-2.6878v21.366c0 11.752 0.09389 21.46 0.20845 21.575 0.28664 0.28666 2.0685 0.25096 4.4157-0.0884z" stroke-width=".31268"/>
 </g>
</svg>
