<svg width="24" height="24" version="1.1" viewBox="0 0 6.4 6.4" xmlns="http://www.w3.org/2000/svg">
 <path d="m3 0.48c-0.042-4.8e-4 -0.094 0.013-0.17 0.039-0.25 0.086-0.52 0.49-0.65 0.99l-0.056 0.22-0.25 0.097c-0.14 0.053-0.25 0.11-0.25 0.12-2.5e-4 0.016-0.074 0.71-0.16 1.5-0.09 0.83-0.16 1.5-0.15 1.5 0.0098 0.012 0.53 0.14 1.2 0.29 0.63 0.15 1.2 0.27 1.2 0.27 0.014 0.0026 0.025-0.039 0.025-0.093 0-0.18 0.13-3.7 0.15-4.1 0.019-0.34 0.018-0.34-0.056-0.33-0.061 0.014-0.089-0.016-0.15-0.16-0.076-0.17-0.22-0.31-0.32-0.31-0.031 0-0.093-0.036-0.14-0.08-0.054-0.051-0.092-0.075-0.15-0.076zm-0.037 0.18c0.071-0.0017 0.068 0.05-0.024 0.13-0.11 0.095-0.24 0.38-0.28 0.6-0.013 0.072-0.048 0.15-0.079 0.17-0.031 0.02-0.11 0.049-0.18 0.064l-0.12 0.028 0.047-0.16c0.12-0.4 0.35-0.74 0.54-0.81 0.04-0.013 0.072-0.02 0.096-0.021zm0.36 0.14c0.011-0.0012 0.059 0.045 0.11 0.11 0.11 0.13 0.13 0.27 0.048 0.3-0.11 0.053-0.14 0.024-0.15-0.19-0.0094-0.12-0.012-0.22-0.0057-0.22 3.9e-4 -5.1e-4 8.2e-4 -9.5e-4 0.0016-1e-3zm-0.17 0.044c0.0042-2.3e-5 0.0072 0.0016 0.0098 0.0046 0.015 0.018 0.028 0.13 0.028 0.26l5.2e-4 0.23-0.15 0.052c-0.08 0.028-0.17 0.061-0.2 0.074-0.053 0.021-0.056 9e-3 -0.022-0.12 0.04-0.16 0.27-0.49 0.33-0.49zm0.75 0.27-0.018 0.21c-0.014 0.17-0.16 4.1-0.15 4.2 3.9e-4 0.027 0.23-0.017 0.62-0.12 0.34-0.088 0.62-0.16 0.63-0.17 0.0095-0.0087-0.4-3.5-0.44-3.7-0.017-0.1-0.03-0.11-0.18-0.11-0.14 0-0.18-0.018-0.31-0.16zm-1.1 1.4c0.072 5.6e-4 0.13 0.018 0.18 0.053 0.085 0.065 0.13 0.19 0.12 0.39-0.0046 0.14-0.034 0.26-0.086 0.35-0.051 0.095-0.12 0.17-0.22 0.21 0.049 0.014 0.093 0.052 0.13 0.11 0.04 0.061 0.079 0.16 0.12 0.29l0.22 0.73-0.46-0.078-0.15-0.59c-0.027-0.11-0.056-0.18-0.087-0.22-0.03-0.038-0.071-0.056-0.12-0.055l-0.087 1e-3 -0.059 0.78-0.29-0.049 0.17-1.8 0.43-0.12c0.071-0.019 0.14-0.029 0.19-0.029zm-0.19 0.36c-0.017-1.8e-4 -0.035 0.0021-0.056 0.0062l-0.13 0.025-0.036 0.47 0.13-0.012c0.067-0.0063 0.12-0.031 0.15-0.074 0.033-0.043 0.053-0.11 0.058-0.2 5e-3 -0.088-0.0069-0.15-0.035-0.18-0.019-0.021-0.047-0.033-0.084-0.033z" style="stroke-width:.036"/>
</svg>
