<?xml version="1.0" encoding="UTF-8" standalone="no"?>
<!-- Created with Inkscape (http://www.inkscape.org/) -->

<svg
   width="161mm"
   height="50mm"
   viewBox="0 0 161 50"
   version="1.1"
   id="svg1"
   xml:space="preserve"
   xmlns="http://www.w3.org/2000/svg"
   xmlns:svg="http://www.w3.org/2000/svg"><defs
     id="defs1" /><g
     id="layer1"><path
       id="rect1"
       style="fill:#000000;stroke-width:3.57187;stroke-linecap:round;stroke-linejoin:round"
       d="m 121.73676,0.46570142 c -5.2676,0.0968 -19.06908,1.68159998 -23.587192,14.72932958 -0.96045,2.77365 -24.600564,5.3511 -24.600564,5.3511 l 0.150378,-6.4978 21.433836,-0.52245 2.54817,-12.4080196 -36.344042,0.25735 -5.888014,22.7035196 -10.08982,2.32182 -5.39451,-24.5519896 h -13.64774 l -25.96224,45.3073096 53.63394,-12.24989 -1.86707,13.10721 13.834294,-0.49351 3.408577,-16.65428 26.058355,-4.82555 c 0,0 -0.58638,23.79804 21.504642,23.49676 21.26908,-0.29008 23.26059,-20.50728 23.26059,-20.50728 l -13.41572,0.4992 c 0,0 -2.44736,6.86526 -8.9333,7.30136 -7.17147,0.48219 -7.04195,-8.42688 -7.04195,-8.42688 l -0.31884,-8.17676 -15.045082,3.4215 c 0,0 15.900682,-9.44821 24.601082,-12.37444 7.73002,-2.5998596 11.51506,5.61878 11.51506,5.61878 l 19.36006,-6.49573 9.73532,-3.1264196 -19.6603,1.39784 c 0,0 -6.01904,-8.44517998 -19.24792,-8.20207998 z M 32.148432,19.400981 l 1.63556,8.56382 -6.81561,1.42678 z" /></g></svg>
