  <svg>
    <defs>
      <clipPath id="blob">
        <path fill="#FF0066" d="M47.1,-70.3C61.4,-64,73.8,-51.7,78.9,-37.1C83.9,-22.4,81.7,-5.5,78.1,10.4C74.5,26.3,69.7,41.3,60.2,52C50.7,62.8,36.5,69.4,21.2,75.3C5.9,81.3,-10.5,86.5,-21.1,79.8C-31.8,73.1,-36.6,54.5,-47.3,41.4C-57.9,28.3,-74.4,20.7,-79.7,9.1C-85,-2.4,-79.1,-17.9,-70,-29.6C-61,-41.3,-48.8,-49.2,-36.6,-56.5C-24.4,-63.8,-12.2,-70.5,2.1,-73.7C16.3,-76.9,32.7,-76.6,47.1,-70.3Z" transform="translate(100 100)" />
      </clipPath>
    </defs>
  </svg>