<?xml version="1.0" encoding="UTF-8" standalone="no"?>
<!-- Created with Inkscape (http://www.inkscape.org/) -->

<svg
   version="1.1"
   id="svg1"
   width="870"
   height="880"
   viewBox="0 0 870.00003 880"
   xmlns="http://www.w3.org/2000/svg"
   xmlns:svg="http://www.w3.org/2000/svg">
  <defs
     id="defs1" />
  <g
     id="g1">
    <path
       style="fill:#000000"
       d="m 418.85626,877.85075 c -76.80728,-5.234 -141.038,-24.6259 -202.35841,-61.094 C 56.401508,721.54519 -25.483272,537.85694 10.318337,354.24405 25.647657,275.62578 66.171148,197.34117 121.87627,138.73275 235.15218,19.553009 405.17072,-26.508421 562.67489,19.311559 c 79.75152,23.20075 154.66565,71.2353 208.26843,133.540641 12.00641,13.95565 40.49241,51.06117 39.69531,51.70658 -0.247,0.19999 -8.8491,2.90828 -19.1157,6.01842 -24.61926,7.45803 -32.30057,11.62845 -45.47475,24.68965 -8.34471,8.27314 -11.92573,13.04787 -15.71189,20.9493 -4.99748,10.42936 -8.83191,26.22762 -8.79023,36.21669 0.0382,9.16351 3.63718,23.40757 9.56287,37.84828 3.07667,7.49773 5.32845,13.86623 5.00396,14.15221 -0.32449,0.28598 -7.48998,4.02679 -15.92332,8.3129 -12.42122,6.3129 -17.10849,9.57594 -24.68018,17.18113 -15.58687,15.6558 -23.31981,34.6045 -23.31981,57.14253 0,19.87743 5.27666,34.57306 18.83041,52.44313 3.81106,5.02472 6.93328,9.77153 6.93828,10.54845 0.005,0.77693 -2.54384,5.17194 -5.66408,9.7667 -11.21049,16.50817 -15.45825,30.29796 -15.24393,49.48738 0.30813,27.5893 11.59361,47.76325 38.48676,68.79901 l 5.283,4.13235 -2.98189,12.00689 c -6.8463,27.56734 -1.77371,54.66646 13.92833,74.40886 2.92229,3.67424 11.06987,11.47424 18.10574,17.33333 7.03586,5.85909 12.68558,10.95289 12.55492,11.31956 -0.13065,0.36667 -7.74199,7.86667 -16.91409,16.66667 -71.67794,68.77013 -158.99657,110.12343 -255.99011,121.23463 -18.25938,2.0917 -57.28067,3.5461 -70.66666,2.6339 z m 50.66666,-47.8945 c 62.15601,-3.6579 131.91222,-27.4869 185.99008,-63.53497 17.90283,-11.93397 38.00991,-27.35397 38.00991,-29.14959 0,-0.56183 -2.18651,-4.2318 -4.85891,-8.15549 -14.65045,-21.51018 -23.31489,-54.45147 -20.96697,-79.71419 l 0.86275,-9.28289 -6.33488,-7.04591 c -9.00712,-10.01809 -13.47387,-16.88205 -20.13008,-30.93345 -8.72584,-18.42043 -11.73982,-32.32434 -11.73982,-54.15754 0,-19.68635 2.69032,-34.14758 9.01198,-48.44197 l 3.32442,-7.5171 -3.1988,-5.72327 c -4.77876,-8.55013 -9.48984,-21.85026 -11.93814,-33.70324 -2.74957,-13.31148 -2.82637,-38.12134 -0.15707,-50.73853 6.10922,-28.87691 21.97298,-55.75163 42.96115,-72.78028 4.83589,-3.92358 8.29388,-7.7036 7.9255,-8.66358 -0.35944,-0.93668 -1.35438,-6.96707 -2.21098,-13.40087 -3.60696,-27.09126 2.88052,-56.67191 18.0218,-82.17321 6.64211,-11.18679 23.31587,-29.28602 33.33903,-36.18923 4.08229,-2.81158 7.42235,-5.52942 7.42235,-6.03964 0,-0.51022 -9.15,-9.86897 -20.33333,-20.79723 -59.9704,-58.60252 -132.60502,-95.049621 -216.43392,-108.603671 -24.58216,-3.97462 -75.58536,-5.01071 -101.03859,-2.05252 -34.7945,4.04384 -69.10838,12.44117 -99.07768,24.24638 C 120.16493,145.44459 18.534777,332.58416 56.897208,519.31555 c 35.53172,172.95276 185.428512,301.8649 361.959052,311.287 17.67086,0.9432 25.315,0.8456 50.66666,-0.6463 z m 74.80617,-94.75072 c -10.47648,-2.81729 -19.28326,-8.06029 -26.68508,-15.88664 -31.81959,-33.64452 -13.26292,-88.03739 32.62921,-95.64196 36.85624,-6.10728 71.06809,28.29382 64.67099,65.02872 -5.87173,33.71794 -38.42726,55.15568 -70.61512,46.49988 z M 239.50553,719.00255 c -21.74665,-7.79752 -35.75095,-24.19139 -39.25571,-45.95396 -4.45093,-27.63773 13.28762,-55.2966 40.47541,-63.11138 11.64875,-3.34829 28.33625,-2.27658 38.70455,2.48569 15.6589,7.1923 26.48718,19.36522 31.4598,35.36643 8.74739,28.14792 -5.13263,57.4522 -33.07776,69.83564 -8.94149,3.96228 -29.07815,4.68644 -38.30629,1.37758 z m 167.71666,-56.47793 c -8.27812,-4.09761 -11.48442,-10.06037 -10.76414,-20.01811 0.5056,-6.98981 1.16683,-8.58181 5.26778,-12.68276 10.3958,-10.3958 27.32113,-7.71407 33.21287,5.26241 3.307,7.28363 3.22092,11.06841 -0.41578,18.2802 -2.19159,4.34607 -4.60312,6.7576 -8.94918,8.94919 -7.38375,3.72341 -11.16476,3.76648 -18.35155,0.20907 z M 308.74752,529.42531 c -4.01082,-1.72114 -9.52257,-8.72918 -10.55213,-13.4167 -1.10965,-5.05222 2.48807,-12.75295 7.75865,-16.60701 5.18675,-3.79277 13.63248,-3.65364 19.2021,0.31632 8.66135,6.17371 8.7974,20.91788 0.25136,27.24116 -3.96384,2.93287 -12.59509,4.21058 -16.65998,2.46623 z M 150.85627,511.92045 c -20.21739,-7.25685 -33.90772,-23.68752 -37.57992,-45.10217 -3.59646,-20.97295 5.79415,-43.34174 23.21016,-55.28746 26.20294,-17.97272 62.56671,-11.56006 79.66795,14.04924 7.22759,10.82341 9.92572,19.63134 9.92572,32.40216 0,32.4138 -24.82418,56.7737 -57.69769,56.61856 -6.67598,-0.0315 -12.72314,-0.95631 -17.52622,-2.68033 z m 275.99999,-2.7355 c -16.50502,-3.22333 -32.53729,-16.26328 -40.39807,-32.85803 -3.9594,-8.35863 -4.2686,-10.02545 -4.2686,-23.01137 0,-13.3589 0.22108,-14.45793 4.82777,-24 17.42478,-36.09284 63.585,-44.38252 91.56075,-16.44294 32.44161,32.39968 15.05631,87.8245 -30.24295,96.41533 -8.25647,1.56581 -13.05154,1.54282 -21.4789,-0.10299 z M 400.51144,316.88191 c -12.65419,-7.02771 -8.4934,-26.54524 6.07556,-28.49935 8.98162,-1.20468 17.60259,6.4032 17.60259,15.53404 0,3.97236 -3.40394,10.16358 -6.95573,12.65134 -3.54426,2.48251 -12.51447,2.65092 -16.72242,0.31397 z M 261.52293,298.16884 c -16.57605,-4.51255 -30.57251,-16.05985 -37.69613,-31.0999 -4.07475,-8.60299 -4.30386,-9.90449 -4.30386,-24.44809 0,-14.69375 0.19183,-15.75103 4.4138,-24.32708 8.36823,-16.99829 23.5536,-28.35967 42.65208,-31.91141 20.51486,-3.81514 43.51623,6.39994 56.32251,25.01323 11.79097,17.13759 12.23777,43.59168 1.03456,61.25329 -13.25773,20.90051 -39.6929,31.70782 -62.42296,25.51996 z m 221.33332,-46.17498 c -20.19772,-7.45199 -33.60838,-23.61449 -37.65684,-45.38396 -3.09828,-16.6602 3.53128,-36.37513 16.64,-49.48385 19.16989,-19.1699 51.94468,-21.19653 73.88082,-4.56842 34.09052,25.8414 28.75524,78.33229 -9.85515,96.95949 -8.00565,3.86225 -10.49356,4.39278 -22.34216,4.76431 -10.82731,0.3395 -14.71165,-0.0905 -20.66667,-2.28757 z m 308.60608,408.71563 c -4.1251,-4.1251 -4.3457,-11.0036 -0.5093,-15.8808 3.7518,-4.76969 12.7131,-4.99483 17.0041,-0.42721 6.8219,7.26152 1.5154,19.58074 -8.4342,19.58074 -3.3057,0 -5.8011,-1.01317 -8.0606,-3.27273 z m -39.69435,-75.92201 c -2.79855,-1.03677 -6.33329,-2.9921 -7.85498,-4.34516 -3.82889,-3.40457 -7.65906,-12.21857 -7.69415,-17.7058 -0.0666,-10.40918 8.94524,-21.20004 19.52582,-23.38049 10.62287,-2.18916 24.04311,6.56413 27.02136,17.62457 4.8004,17.82725 -13.53609,34.27603 -30.99805,27.80688 z m 84.43235,-22.38616 c -8.4279,-4.34222 -12.0108,-10.23444 -12.0108,-19.75244 0,-16.62272 14.5268,-26.64682 30.0338,-20.72464 8.2377,3.14602 12.9277,9.55328 13.686,18.6971 1.4639,17.65212 -16.188,29.77667 -31.709,21.77998 z m -44.3495,-95.78191 c -8.3106,-2.09939 -17.64615,-7.49927 -24.06889,-13.92202 -24.709,-24.709 -17.06135,-66.87949 14.84079,-81.83463 6.6124,-3.09979 9.2486,-3.54721 20.9002,-3.54721 11.6757,0 14.2811,0.44425 20.9574,3.57341 39.4183,18.47533 39.639,73.58221 0.3684,91.95914 -9.4459,4.42028 -23.8928,6.07141 -32.9979,3.77131 z m 12.1819,-147.81366 c -4.8097,-4.80966 -5.1765,-5.71836 -5.1765,-12.82353 0,-7.10517 0.3668,-8.01388 5.1765,-12.82353 4.5343,-4.53429 5.9485,-5.17647 11.3995,-5.17647 11.4409,0 19.4087,7.27604 19.419,17.73288 0.011,10.92291 -7.6768,18.25332 -19.1519,18.26213 -5.7644,0.004 -7.069,-0.57389 -11.6666,-5.17148 z"
       id="path1" />
  </g>
</svg>
