<?xml version="1.0" encoding="UTF-8" standalone="no"?>
<!-- Created with Inkscape (http://www.inkscape.org/) -->

<svg
   width="79.033371mm"
   height="45.824219mm"
   viewBox="0 0 79.033371 45.824219"
   version="1.1"
   id="svg5"
   xml:space="preserve"
   sodipodi:docname="DNModa.svg"
   inkscape:version="1.3.1 (9b9bdc1480, 2023-11-25, custom)"
   xmlns:inkscape="http://www.inkscape.org/namespaces/inkscape"
   xmlns:sodipodi="http://sodipodi.sourceforge.net/DTD/sodipodi-0.dtd"
   xmlns="http://www.w3.org/2000/svg"
   xmlns:svg="http://www.w3.org/2000/svg"><sodipodi:namedview
     id="namedview7"
     pagecolor="#ffffff"
     bordercolor="#000000"
     borderopacity="0.25"
     inkscape:showpageshadow="2"
     inkscape:pageopacity="0.0"
     inkscape:pagecheckerboard="0"
     inkscape:deskcolor="#d1d1d1"
     inkscape:document-units="mm"
     showgrid="false"
     inkscape:zoom="2.0119929"
     inkscape:cx="126.74001"
     inkscape:cy="93.936712"
     inkscape:window-width="1882"
     inkscape:window-height="1016"
     inkscape:window-x="38"
     inkscape:window-y="27"
     inkscape:window-maximized="1"
     inkscape:current-layer="layer1" /><defs
     id="defs2" /><g
     inkscape:label="Layer 1"
     inkscape:groupmode="layer"
     id="layer1"
     transform="translate(-80.101122,-110.97081)"><path
       style="stroke-width:0.730568"
       d="m 90.448515,150.41606 c -0.615187,-0.41484 0.0083,-0.72022 1.470458,-0.72022 h 1.471332 v -15.75101 -15.75098 l -1.425415,-0.0681 c -1.164228,-0.0556 -1.439896,-0.14402 -1.504459,-0.48279 -0.07561,-0.39676 0.36101,-0.41099 10.048779,-0.3276 l 10.1278,0.0872 2.14544,0.61742 c 3.38158,0.97315 5.61266,2.24765 7.30982,4.17572 l 0.93846,1.06614 v -2.53353 -2.53352 l -1.31128,-0.0686 c -1.02505,-0.0535 -1.32759,-0.15425 -1.38602,-0.46137 -0.0691,-0.36293 0.42417,-0.39771 6.47634,-0.45687 l 6.55108,-0.0639 0.3935,0.57108 c 0.2164,0.31411 1.34984,2.42139 2.51871,4.6829 4.37282,8.46023 9.35367,17.95416 9.51764,18.14139 0.0459,0.0523 0.0833,-4.95353 0.0833,-11.12419 v -11.21935 l -1.19713,-0.0691 c -0.92524,-0.0533 -1.2144,-0.15983 -1.27315,-0.46881 -0.0695,-0.36597 0.20667,-0.39975 3.26978,-0.39975 3.06316,0 3.33936,0.0338 3.2697,0.39975 -0.06,0.31535 -0.35297,0.41424 -1.38734,0.46826 l -1.31127,0.0686 v 16.21347 16.21347 l -3.33635,-0.0633 -3.33634,-0.0632 -3.87274,-7.30984 c -2.13,-4.02043 -4.44178,-8.38921 -5.13727,-9.70843 -5.03843,-9.55676 -7.05038,-13.24912 -7.21938,-13.24912 -0.39843,0 -0.0494,5.76055 0.49123,8.10938 0.46796,2.03294 0.51247,2.67401 0.40427,5.82505 -0.0825,2.40584 -0.2709,4.16306 -0.58749,5.48238 -0.36779,1.53261 -0.46719,2.71984 -0.47182,5.63507 -0.004,2.03133 0.0565,3.85594 0.1328,4.05468 0.10302,0.26851 0.45942,0.36133 1.38735,0.36133 1.06627,0 1.23744,0.0584 1.1717,0.39975 -0.069,0.35799 -0.4106,0.39975 -3.26879,0.39975 -2.82112,0 -3.20049,-0.0451 -3.26652,-0.38791 -0.0623,-0.32307 0.14733,-0.39946 1.25326,-0.45687 l 1.32796,-0.0689 0.0543,-2.96962 0.0542,-2.96963 -0.49902,0.68529 c -1.44965,1.99083 -4.17384,3.8482 -7.0227,4.78813 -3.51127,1.15849 -4.99702,1.30662 -14.173739,1.41314 -5.07904,0.0591 -8.694401,0.0133 -8.881057,-0.11286 z m 15.685775,-0.93715 c 4.02241,-0.58169 6.00251,-3.00042 6.92198,-8.45544 0.42767,-2.53712 0.46783,-3.48275 0.36879,-8.68045 -0.0921,-4.8336 -0.18966,-6.14075 -0.56938,-7.62813 -1.2303,-4.81902 -3.37385,-6.54285 -8.13598,-6.54285 h -1.96363 v 15.6096 c 0,8.58529 0.0686,15.67813 0.15229,15.76189 0.20941,0.20943 1.51119,0.18334 3.22593,-0.0645 z"
       id="path320" /></g></svg>
