<?xml version="1.0" encoding="UTF-8" standalone="no"?>
<svg
   height="1840"
   viewBox="-15.834463 -37.880922 282.79708 496.8257"
   width="1080"
   version="1.1"
   id="svg4"
   sodipodi:docname="KFCLogo.svg"
   inkscape:version="1.3.1 (9b9bdc1480, 2023-11-25, custom)"
   xmlns:inkscape="http://www.inkscape.org/namespaces/inkscape"
   xmlns:sodipodi="http://sodipodi.sourceforge.net/DTD/sodipodi-0.dtd"
   xmlns="http://www.w3.org/2000/svg"
   xmlns:svg="http://www.w3.org/2000/svg">
  <defs
     id="defs4" />
  <sodipodi:namedview
     id="namedview4"
     pagecolor="#505050"
     bordercolor="#ffffff"
     borderopacity="1"
     inkscape:showpageshadow="0"
     inkscape:pageopacity="0"
     inkscape:pagecheckerboard="1"
     inkscape:deskcolor="#d1d1d1"
     inkscape:zoom="0.3264"
     inkscape:cx="784.31373"
     inkscape:cy="759.80392"
     inkscape:window-width="1452"
     inkscape:window-height="752"
     inkscape:window-x="299"
     inkscape:window-y="129"
     inkscape:window-maximized="0"
     inkscape:current-layer="svg4" />
  <path
     d="m 252.12117,154.70489 c -1.152,16.425 -10.398,32.38 -12.634,36.444 -4.965,9.025 -6.645,15.385 -7.621,18.405 -0.968,2.996 -3.3,2.114 -3.84,1.567 -0.53,-0.586 -0.94,-3.053 -1.271,-3.452 -0.31,-0.404 -1.3,-0.358 -2.27,2.192 -0.999,2.518 -3.575,5.866 -5.08,7.69 -0.974,1.192 -1.098,3.04 -1.115,4.494 0,2.803 0.036,13.605 -2.115,25.584 -3.8,21.339 -13.126,33.888 -19.663,40.231 -15.393,14.942 -28.615,20.322 -30.218,21.124 -2.077,1.038 -5.21,0.423 -6.234,-0.042 -1.034,-0.448 -1.833,-1.633 -3.623,-3.286 -1.842,-1.636 -2.477,0.847 -2.549,1.479 -0.074,0.598 0.593,2.946 0.853,5.187 0.46,4.204 -2.552,8.815 -5.544,12.409 -1.874,2.243 -3.822,4.602 -5.443,7.107 -2.006,3.106 -3.49,6.464 -3.552,10.21 -0.119,0.573 -0.159,1.001 -0.707,1.123 -3.812,0.83 -7.271,-3.574 -10.236,-6.07 a 221.827,221.827 0 0 1 -5.893,-5.263 l -0.013,-0.008 c -2.107,-1.965 -4.113,-3.968 -5.986,-6.082 -0.128,-0.14 -0.248,-0.282 -0.37,-0.423 a 69.142,69.142 0 0 1 -2.14,-2.596 c -0.207,-0.267 -0.415,-0.532 -0.613,-0.798 a 49.885,49.885 0 0 1 -2.289,-3.265 c -7.081,-11.016 -5.327,-17.795 -1.096,-30.315 2.96,-8.886 1.06,-17.825 0.566,-19.125 -0.499,-1.293 0.415,-2.442 2.293,-1.275 1.869,1.162 3.406,4.216 5.09,6.875 1.727,2.661 2.407,1.022 2.804,-0.591 0.959,-3.896 0.38,-7.207 0.164,-8.984 -0.15,-1.056 -0.822,-3.524 -2.894,-4.212 -2.765,-0.928 -5.544,-1.538 -6.9,-2.796 -0.667,-0.59 -1.312,-1.699 -0.424,-2.31 1.652,-1.162 4.002,-2.692 6.096,-3.082 2.836,-0.565 5.646,-1.607 9.118,-1.114 23.22,3.117 30.218,-1.266 39.61,-3.663 1.846,-0.466 2.93,-0.669 4.374,-0.025 1.435,0.63 5.291,2.637 6.08,4.512 0.794,1.865 -0.037,9.166 1.2,14.671 1.254,5.52 5.35,0.498 6.365,-1.678 1.026,-2.168 2.082,-7.518 2.294,-8.874 0.225,-1.346 1.418,-7.028 3.57,-8.719 4.253,-3.351 5.75,-7.755 6.435,-9.471 0.703,-1.723 1.817,-7.036 1.618,-14.8 -0.209,-7.743 -1.679,-8.583 -3.654,-10.248 -1.944,-1.662 -4.289,-1.338 -9.264,-5.661 -4.439,-3.86 -8.093,-10.094 -11.3,-14.02 -3.225,-3.917 -8.557,-8.12 -14.646,-9.537 -6.068,-1.392 -3.206,4.36 -2.874,5.857 0.246,1.05 0.811,4.22 -1.211,5.765 -1.983,1.55 -13.492,9.093 -23.096,7.627 -15.343,-2.331 -20.768,-12.902 -21.542,-16.865 -0.843,-4.23 3.977,-13.397 4.82,-20.288 0.35,-3.032 0.517,-8.877 0.592,-12.952 0.084,-4.08 3.04,-9.225 4.255,-10.376 1.193,-1.168 4.13,-1.912 7.66,-2.202 3.534,-0.304 7.316,1.844 7.956,4.71 2.27,9.95 5.973,12.466 7.219,13.272 1.267,0.807 3.64,-0.806 4.563,-1.387 0.933,-0.578 3.31,-2.85 2.559,-4.071 -1.136,-1.894 -1.759,-3.032 -2.006,-4.142 -0.433,-1.886 2.02,-1.598 2.571,-1.279 6.931,3.937 10.368,4.993 17.49,5.711 7.107,0.687 18.758,-2.388 20.145,-2.243 1.109,0.121 3.199,1.055 3.883,2.26 0.56,1.043 1.595,3.414 2.629,3.834 1.034,0.379 3.547,0.529 4.854,0.744 1.798,0.29 5.014,0.1 4.471,3.248 -1.382,8.438 -9.066,12.816 -9.772,13.252 -0.119,0.083 -0.16,0.202 -0.256,0.29 0.049,-0.046 0.063,-0.111 0.119,-0.166 -1.277,0.69 -2.836,1.25 -5.001,1.616 -1.595,0.27 -2.588,0.62 -3.097,1.047 -1.03,0.885 0.827,2.667 2.492,3.95 1.167,0.926 5.117,0.125 8.173,-0.806 h -0.005 c 0.115,-0.045 0.212,-0.024 0.322,-0.065 6.376,-2.66 9.345,-6.352 12.591,-11.055 3.252,-4.682 6.906,-21.07 7.422,-23.78 0.508,-2.697 1.649,-4.266 3.221,-5.194 1.546,-0.926 8.998,-4.282 10.024,-4.37 0.993,-0.094 2.129,-0.045 2.912,2.56 0.772,2.629 1.095,18.231 1.263,20.636 0.172,2.564 1.554,2.44 2.3,2.043 1.628,-0.85 2.855,-1.976 4.49,-3.978 1.62,-2.01 1.055,-5.114 -0.057,-6.684 -1.097,-1.558 -2.86,-4.071 -1.671,-6.172 2.7,-4.798 6.843,-3.989 7.957,-3.673 1.081,0.315 5.075,2.708 4.302,13.808 m -97.105,86.66 c -2.775,0.962 -10.789,2.728 -14.664,2.948 -3.918,0.213 -16.327,1.006 -18.404,0.914 -2.562,-0.14 -6.012,-1.316 -8.822,-3.759 -0.565,-0.49 -1.18,-2.186 1.109,-2.227 4.259,-0.07 11.446,-2.223 36.186,-0.236 2.645,0.204 3.897,0.319 4.523,0.378 0.646,0.054 2.841,1.046 0.072,1.981 m -57.953004,-12.536 c -11.16,2.205 -13.637,-1.779 -14.455,-2.98 -0.786,-1.167 0.535,-2.072 1.723,-2.433 2.695,-0.81 6.428,-2.837 8.363,-4.24 1.948,-1.372 6.043,-6.523 8.751004,-8.18 1.277,-0.79 7.745,-2.007 12.096,0.719 5.196,3.244 13.757,4.614 19.138,4.627 5.368,0 7.903,-3.468 9.352,-5.512 1.467,-2.048 4.392,-2.51 5.942,-2.909 4.268,-1.058 10.386,-5.732 11.018,-6.214 0.65,-0.482 2.426,-1.055 4.851,0.78 4.444,3.382 6.454,7.3 10.271,12.825 3.812,5.467 9.008,6.937 10.572,7.223 1.545,0.3 2.262,2.165 2.275,2.663 0.012,0.485 -1.52,1.974 -2.58,2.539 -1.074,0.594 -1.777,1.756 -10.43,0.863 -43.37,-4.543 -63.48,-2.463 -76.887004,0.229 m -6.282,57.694 c -8.747,0.245 -30.707,-9.122 -40.652,-46.283 -2.576,-9.56 2.885,-18.082 6.83,-19.412 2.333,-0.806 3.556,-1.063 4.338,-1.159 0.808,-0.096 4.793,-0.067 4.647,4.2 -0.132,3.451 2.86,32.264 10.784,42.694 1.97,2.592 3.782,2.684 4.687,0.403 0.83,-2.114 2.214,-4.856 2.66,-5.895 0.323,-0.747 2.867,-2.837 3.72,0.342 1.81,6.753 3.936,15.576 5.636,19.204 1.635,3.55 0.633,5.815 -2.65,5.906 m -47.8,-106.918 c 0.959,0.647 3.737,2.757 6.91,3.826 1.925,0.643 3.242,-0.114 3.878,-1.43 0.659,-1.304 2.412,-3.855 -0.256,-5.295 -2.66,-1.455 -10.342,-4.923 -14.883,-16.468 -0.654,-1.636 0.371,-2.82 1.007,-3.193 0.64,-0.386 2.92,-1.388 4.011,-1.862 1.104,-0.47 2.46,-0.233 3.738,0.914 1.259,1.122 3.967,3.597 6.396,3.693 2.232,0.095 2.598,-0.764 3.049,-1.259 1.878,-2.002 7.258,-9.463 18.422,-8.166 4.598,0.531 8.848,1.499 10.39,1.61 1.564,0.101 7.051,0.33 10.541,-1.37 3.45,-1.661 4.585004,0.009 2.456,2.073 -2.138,2.036 -3.645,3.083 -1.908,5.438 1.299,1.749 1.908,2.438 2.368,2.913 l -0.102,0.814 c 0,0.029 -0.057,0.456 -0.195,1.154 -0.64,3.227 -3.03,6.546 -5.11,8.408 -2.793,2.487 -7.656,3.913 -9.49,4.456 -2.337,0.707 -6.105,1.001 -6.627,1.022 -0.203,0.025 -0.896,0.025 -1.32,0.025 l -0.795,0.034 c -0.217,0.02 -0.513,0.054 -0.91,0.07 l -0.34,0.013 -0.637,-0.013 c -0.252,0 -0.543,0.013 -0.848,0.083 -1.294,0.304 -2.06,1.305 -1.997,2.65 0.053,0.644 0.366,1.318 0.703,1.961 0.335,0.926 2.005,2.858 5.022,2.858 0.19,0 0.38,-0.008 0.592,-0.033 3.539,-0.312 5.8,-0.685 7.992,-1.064 1.158,-0.2 2.677,-0.552 3.976,-0.91 -0.623,0.674 -1.237,1.372 -1.758,2.168 -2.938,4.4 -2.88,5.999 -3.358,7.669 -0.481,1.688 -1.935,2.186 -3.56,2.676 -1.644,0.485 -7.754,3.011 -12.649,6.841 -4.872,3.839 -10.54,3.805 -14.918,-0.902 -4.382,-4.697 -9.882,-11.597 -11.787,-19.42 -0.618,-2.5 1.016,-2.653 1.997,-1.984 m -5.929,-41.606 c 0.54,-1.696 3.133,-6.037 7.489,-6.8 0.565,-0.109 2.725,-0.49 4.532,-0.695 2.112,-0.207 4.356,-0.386 5.5,-0.43 3.084,-0.125 3.42,2.175 1.33,3.359 -1.387,0.793 -3.53,1.773 -5.487,2.92 -2.942,1.732 -5.827,3.744 -8.022,5.06 -2.677,1.64 -6.441,0.071 -5.342,-3.414 m 48.022,1.399 c -2.735,-0.45 -5.646,-1.147 -10.917,0 -5.893,1.28 -9.9,3.423 -12.745,4.628 -2.911,1.276 -5.858,1.582 -6.83,1.54 -0.94,-0.061 -4.351,-0.93 -1.63,-3.028 0.75,-0.568 2.315,-0.872 4.847,-2.184 1.797,-0.956 3.132,-1.637 5.203,-2.912 3.756,-2.319 11.097,-5.384 14.115,-5.359 2.187,0.03 5.994,0.922 8.027,3.02 2.116,2.185 2.695,4.74 -0.07,4.295 m 20.193004,55.143 c 0.685,1.201 0.91,3.22 0.711,4.046 -0.199,1.022 -3.98,2.357 -7.121004,-2.096 -3.136,-4.434 -1.666,-9.875 0.199,-12.018 2.964004,-3.43 7.483004,-0.935 6.830004,0.332 -2.262,4.404 -1.255,8.549 -0.619,9.736 m 92.23,-45.597 c -1.186,0.565 -4.59,-0.514 -5.82,-1.167 -2.463,-1.308 -4.217,-2.236 -7.535,-4.923 -2.201,-1.756 -6.252,-3.003 -10.003,-2.417 -2.47,0.374 -4.452,0.726 -6.689,1.217 -2.195,0.507 -2.367,-1.391 -1.705,-2.11 0.654,-0.707 4.515,-4.047 9.14,-5.064 0.99,-0.22 2.877,-0.161 3.835,-0.067 2.81,0.3 6.177,2.074 8.594,4.304 2.42,2.244 6.263,5.854 8.906,7.377 1.263,0.723 4.063,1.491 1.277,2.85 m -1.95,-11.901 c -1.523,-1.354 -4.21,-3.518 -5.92,-4.382 -1.16,-0.578 -0.507,-1.994 1.26,-2.002 6.246,-0.067 10.143,0.427 12.931,2.641 2.028,1.613 3.164,4.367 2.169,6.543 -1.153,2.492 -2.169,1.782 -3.476,1.603 -1.313,-0.182 -5.461,-3.053 -6.964,-4.403 m 26.547,-5.509 c -0.075,0.661 -0.331,2.285 -0.403,2.91 -0.052,0.627 -0.935,1.166 -1.754,1.187 -0.808,0.003 -6.3,-0.212 -7.165,-0.262 -0.839,-0.054 -1.612,-0.598 -1.586,-1.392 0.04,-0.755 0.102,-2.588 0.115,-3.048 -0.013,-0.466 0.072,-1.089 1.194,-1.063 0.618,0 6.356,0.228 8.454,0.265 0.809,0 1.23,0.739 1.145,1.403 m -186.530004,-15.942 c -0.084,-1.836 -0.199,-4.93 0.22,-6.808 0.19,-0.749 0.667,-2.596 1.75,-3.493 1.546,-1.284 3.49,-2.373 4.754,-3.128 2.328,-1.364 2.478,-5.674998 2.964,-8.104998 1.44,-7.017 3.9,-29.497 21.982,-48.987 9.23,-9.937 18.422,-9.6 28.036,-9.925 9.197004,-0.319 19.490004,2.415 24.646004,4.77 4.109,1.864 6.14,3.115 7.753,2.018 1.612,-1.13 5.929,-4.731 7.71,-5.965 1.784,-1.263 1.112,-3.224 -0.575,-4.507 -1.621,-1.21 -17.424,-15.86 -41.006004,-19.449 -23.043,-3.5299996 -42.874,1.924 -48.087,2.933 -1.06,0.195 -1.603,0.29 -2.191,0.224 -0.578,-0.058 -2.522,-0.997 -1.546,-2.284 0.985,-1.405 3.38,-3.4529996 5.765,-5.0379996 2.5,-1.647 14.809,-10.136 26.242,-13.343 2.12,-0.582 2.663,-0.872 4.015,-1.172 1.714,-0.41 3.167,-3.8100004 -0.402,-4.3030004 -3.742,-0.498 -5.266,-0.275 -7.263,-0.216 -1.996,0.042 -2.96,-0.943 -1.51,-2.39 1.47,-1.453 4.121,-2.936 8.782,-4.66 10.179,-3.73 28.220004,-6.733 36.632004,-7.423 10.978,-0.869 12.303,-0.835 19.447,-0.332 6.693,0.464 11.937,1.616 14.423,2.018 21.113,3.516 44.601,13.405 61.845,27.8240004 16.248,15.0579996 39.16,39.5869996 37.02,92.6369996 -0.26,6.346998 -1.187,9.860998 -1.639,11.389998 -0.469,1.557 -2.703,4.213 -3.887,0.698 -3.86,-11.493998 -10.18,-26.713998 -17.698,-41.364998 -1.236,-2.409 -2.955,-1.682 -2.717,0.67 0.089,0.98 1.095,15.568 0.946,17.557 -0.146,1.994 -1.825,6.71 4.563,16.620998 2.633,4.075 4.97,7.555 5.615,13.139 0.676,5.591 0.822,7.962 0.77,8.506 -0.067,0.574 0.388,2.272 -2.32,1.94 -2.695,-0.337 -12.848,-2.367 -17.242,-2.85 -4.427,-0.452 -35.174,-1.49 -46.78,-0.63 -11.62,0.843 -18.09,2.808 -24.673,7.917 -1.596,1.234 -3.747,2.285 -4.18,2.35 -0.46,0.063 -1.93,-0.145 -4.775,-0.705 -2.837,-0.553 -7.903,-0.514 -10.678,0.287 -2.77,0.789 -4.797,1.595 -7.788,-0.05 -4.26,-2.36 -10.925,-11.386 -31.180004,-13.015 -18.886,-1.533 -23.49,-1.849 -44.567,-0.602 -1.909,0.12 -3.08,-0.84 -3.176,-2.754 m -5.395,-47.192998 c -1.616,1.266 -4.903,3.922 -6.516,8.146 -1.63,4.266 -7.899,19.142 -8.716,42.768998 -0.088,2.741 0.566,6.496 -2.257,7.49 -1.732,0.577 -3.2379999,1.104 -4.6209999,1.465 -1.405,0.391 -2.616,0.387 -3.296,-1.469 -1.639,-4.512 -2.253,-12.259 -2.244,-17.194 0.022,-4.972 1.038,-19.672998 2.47,-27.603998 1.44,-7.9 0.454,-12.547 -1.97,-16.751 -2.46100004,-4.179 -3.99000004,-7.062 -4.525,-8.429 -0.693,-1.729 0.063,-2.746 1.98799996,-3.734 0.93300004,-0.467 2.62000004,0.099 3.99400004,0 2.726,-0.171 12.0249999,-2.111 19.3009999,-6.256 7.276,-4.129 19.125,-12.417 26.74,-15.195 7.639,-2.8 11.01,-4.089 19.465,-3.98 1.48,0.02 3.587,1.076 0.84,2.58 -2.748,1.515 -11.107,3.206 -22.327,15.54 -6.88,7.544 -8.474,12.207 -10.797,15.68 -2.346,3.49 -4.228,4.317 -7.529,6.942 m 0.606,65.943998 c -0.411,0.02 -4.414,-0.055 -6.582,0.087 -1.37,0.05 -2.797,0.349 -2.766,-0.894 0.014,-1.424 -0.168,-3.301 -0.225,-3.833 -0.04,-0.516 0.3,-0.976 0.927,-1.035 1.64,-0.137 7.85,-0.36 8.425,-0.303 0.601,0.062 1.158,0.332 1.246,1.542 0.08,1.183 0.19,2.472 0.19,2.986 -0.005,0.524 0.022,1.429 -1.215,1.45 m -15.648,26.81 c -1.29,-1.135 -6.0169999,-9.364 -7.6559999,-18.083 -0.172,-0.909 -0.238,-3.19 1.388,-3.647 1.3289999,-0.332 3.1049999,-1.05 4.0099999,-1.338 0.937,-0.273 3.169,-0.568 3.058,2.472 -0.124,3.05 -0.331,6.63 1.997,15.998 0.428,1.665 0.49,2.189 0.574,2.845 0.212,1.894 -2.2,2.812 -3.37,1.753 m 244.994004,-36.572 c 0,0 19.835,-69.184998 -37.612,-123.76199756 -0.04,-0.025 -1.922,-1.616 -3.072,-2.57700004 -2.394,-1.984 -5.456,-4.456 -8.98,-6.886 -7.448,-5.1270004 -13.391,-9.0600004 -25.64,-14.6890004 -3.098,-1.403 -16.682,-7.357 -29.211,-10.094 -4.466,-0.975 -13.165,-2.977 -21.298,-3.685 -0.402,-0.028 -0.861,-0.062 -1.356,-0.095 a 1.49,1.49 0 0 1 -0.23,-0.016 c -0.415,-0.021 -0.888,-0.042 -1.352,-0.067 a 19.37,19.37 0 0 0 -0.826,-0.03 c -0.45,-0.025 -0.932,-0.04 -1.422,-0.061 -0.358,-0.013 -0.738,-0.013 -1.118,-0.021 a 88.097,88.097 0 0 0 -5.403,-0.05 c -0.786,0 -1.586,0.008 -2.408,0.021 -0.574,0.008 -1.14,0.02 -1.736,0.029 -0.57,0.008 -1.17,0.033 -1.754,0.054 -0.65,0.02 -1.285,0.034 -1.961,0.058 -2.023,0.083 -4.692,0.362 -7.497,0.728 -4.524,0.594 -9.379004,1.42 -12.374004,2.06 -3.344,0.743 -7.859,1.602 -13.501,3.082 a 253.347,253.347 0 0 0 -6.966,1.969 c -0.654,0.187 -1.308,0.374 -1.953,0.565 a 304.88,304.88 0 0 0 -7.568,2.376 c -1.846,0.594 -9.692,3.709 -11.398,4.427 -0.817,0.35 -1.947,0.79 -3.163,1.243 -7.899,2.292 -6.896,7.307 -6.896,7.307 C 34.163166,8.1588924 5.2671661,6.7508924 5.2671661,6.7508924 4.5421661,15.900892 25.747166,24.694892 25.747166,24.694892 c -3.905,7.503 -16.0889999,13.014 -29.9779999,14.066 -14.3360001,1.088 -15.6130001,12.569 -15.6130001,12.569 6.817,10.319 15.4850001,12.99 7.687,64.580998 -7.806,51.593 37.542,89.585 37.542,89.585 -3.414,22.98 12.189,48.31 12.189,48.31 -4.877,18.75 13.337,46.072 13.337,46.072 1.299,1.777 13.301,15.473 34.516,28.092 3.295,1.974 5.633,3.199 6.865,4.013 0.071,0.046 0.137,0.096 0.208,0.142 0.124,0.086 0.234,0.17 0.33,0.244 0.111,0.093 0.186,0.166 0.257,0.246 0.03,0.029 0.084,0.065 0.106,0.096 0.565,0.747 1.365,2.255 -0.715,2.462 -2.112,0.184 -8.133,-0.374 -14.769,1.218 -6.63,1.59 -5.73,3.9 -5.862,7.594 -0.137,3.33 0.132,5.736 -0.058,10.197 -0.19,4.453 -1.007,8.411 0.981,10.572 1.962,2.123 4.855,3.601 13.192,3.12 7.925,-0.445 10.576,-0.732 11.481,-0.644 0.892,0.067 18.440004,-0.869 20.998004,-1.691 2.38,-0.785 3.23,0.913 1.643,4.046 -3.437,6.776 -18.064,33.51 -47.182004,58.674 -4.88,3.76 20.167,10.127 22.147,9.4 1.992,-0.718 16.019004,-14.629 24.417004,-27.449 0.45,-0.51 4.48,-6.255 7.7,-14.219 0.516,-1.283 1.52,-2.109 1.833,-0.107 0.22,1.445 3.194,39.113 1.232,52.896 -0.993,6.982 5.297,5.878 21.903,9.746 4.104,0.947 1.719,-63.814 -8.075,-90.477 -0.004,-0.005 0,-0.013 0,-0.013 a 1.772,1.772 0 0 1 -0.124,-0.64 c 0,-0.91 0.672,-1.666 1.555,-1.836 0,0 0.416,-0.088 0.654,-0.12 5.634,-0.782 18.647,-0.287 20.865,-0.196 2.183,0.062 8.028,1.073 11.178,1.346 3.109,0.29 10.164,1.005 10.006,-7.983 -0.036,-2.402 -0.04,-4.819 -0.032,-7.054 0.005,-0.307 0.01,-0.615 0.01,-0.914 a 87.13,87.13 0 0 1 0.022,-1.662 l 0.012,-0.944 c 0.005,-0.303 0.01,-0.61 0.019,-0.905 0.003,-0.273 0.013,-0.552 0.017,-0.809 0.013,-0.485 0.022,-0.955 0.044,-1.383 0,-0.137 0.005,-0.258 0.013,-0.386 0.009,-0.321 0.017,-0.625 0.036,-0.897 0.003,-0.142 0.014,-0.28 0.017,-0.412 0.014,-0.25 0.03,-0.457 0.044,-0.644 0.005,-0.062 0.009,-0.145 0.009,-0.2 0.022,-0.266 0.049,-0.56 0.057,-0.88 0.08,-2.192 -0.348,-5.388 -4.735,-6.469 -5.04,-1.203 -13.722,-1.154 -21.743,0.433 -1.097,0.216 -1.79,0.07 -1.994,-0.286 -0.19,-0.35 0.102,-0.894 0.968,-1.462 1.718,-1.16 16.31,-7.835 29.501,-19.001 14.513,-12.3 21.45,-21.812 25.902,-30.718 0,0 14.507,-28.929 11.22,-60.577 l 2.554,-3.174 c 0,0 9.879,3.527 15.727,-10.9 5.855,-14.418 43.153,-75.975 14.261,-84.782"
     id="path3" />
</svg>
