<svg width="125mm" height="36mm" fill="var(--primary-text-color)" version="1.1" viewBox="0 0 125 36" xmlns="http://www.w3.org/2000/svg">
 <path d="m79 34c-1.7-0.89-2.3-1.8-2.3-3.7 0-1.9 0.55-2.8 2.3-3.6 1.3-0.65 2.4-0.75 3.7-0.31 0.69 0.24 0.79 0.37 0.57 0.77-0.22 0.41-0.4 0.44-1.3 0.21-1.9-0.47-3.5 0.91-3.5 2.9 0 2.1 1.8 3.5 3.7 3 0.75-0.21 0.96-0.18 1.1 0.14 0.24 0.61-0.3 0.96-1.7 1.1-0.97 0.086-1.6-0.033-2.4-0.5zm7.2 0.26c-1.5-0.8-2.1-3-1.4-4.4 0.39-0.72 1.6-1.3 2.7-1.3 2.8 3e-3 4 3.4 1.9 5.4-0.7 0.62-2.4 0.82-3.2 0.38zm2.1-0.91c0.64-0.58 0.67-2.9 0.046-3.6-1-1.1-2.2-0.21-2.2 1.6 0 2 1.1 3 2.2 2zm4.2 0.73c-0.58-0.47-0.62-0.7-0.62-3v-2.5l1.5-0.17v2c-1e-5 2.2 0.28 3 1.1 3 0.9 0 1.3-1 1.3-3.1v-1.9l1.5 0.17 0.15 5.7h-0.8c-0.44 0-0.8-0.13-0.8-0.28 0-0.16-0.26-0.099-0.59 0.13-0.79 0.56-1.9 0.52-2.6-0.093zm15 0.091c-2-1.1-2-4.2 0.054-5.3 0.85-0.44 2.3-0.52 2.9-0.16 0.61 0.38 0.064 0.82-1 0.82-1.7 0-2.5 1.8-1.3 3.3 0.46 0.58 0.74 0.7 1.5 0.63 0.71-0.061 0.98 0.026 1 0.35 0.15 0.78-2 1-3.2 0.35zm-8.4-2.8c0-2.9 2e-3 -2.9 0.64-2.9 0.35 0 0.68 0.14 0.74 0.3 0.076 0.23 0.24 0.23 0.67 0 1-0.55 2.4-0.37 3 0.39 0.46 0.58 0.55 1.1 0.55 2.9v2.2h-1.6v-2.1c0-2.2-0.23-2.7-1.2-2.7s-1.2 0.52-1.2 2.7v2.1h-1.6zm13 0.066 0.075-2.8 1.5-0.17v5.9h-1.6zm3.1-1.4v-4.2h1.6v8.5h-1.6zm-3-2.6c-0.3-0.3-0.2-1.1 0.19-1.4 0.75-0.62 1.8 0.45 1.2 1.2-0.32 0.38-1.1 0.49-1.4 0.19zm-109-1.6c0-0.07 0.3-0.48 0.66-0.92 0.8-0.95 0.71-1.2-0.59-1.4-1.3-0.23-0.9-0.45 1.9-1.2 8.2-2.1 20-3.2 34-3.2 8.8-4e-3 9.9 0.056 24 1.3 12 1.1 18 1.3 28 1.3 12-7.9e-4 20-0.59 26-2.1 3.1-0.72 5.9-0.88 6.7-0.39 0.42 0.23 0.3 0.4-0.95 1.3-1.3 0.98-1.7 1.1-4.6 1.6-7.2 1.2-12 1.5-25 1.5-14 8e-3 -14-5e-3 -32-2.6-6.7-0.98-8-1.1-14-1.2-15-0.26-29 1.5-42 5.1-1.7 0.48-3 0.82-3 0.75zm24-9.6c-2.7-0.47-4.4-2.5-4.4-5.5-0.0072-2.2 0.72-3.7 2.3-4.7 0.95-0.63 1.4-0.73 3-0.73 1.5 0 2.1 0.11 2.7 0.54 1 0.75 1.9 2.6 1.9 4v1.1h-3.4c-3.8 0-3.8 6e-3 -3 1.8 0.74 1.6 2.7 2.1 4.7 1.3 0.85-0.36 0.89-0.34 1.3 0.39 0.44 0.75 0.44 0.75-0.4 1.2-1.1 0.57-3.3 0.85-4.7 0.6zm2.8-7.7c-0.19-1-1-1.8-1.9-1.8-0.8 0-1.9 1-2.1 1.9l-0.17 0.73h4.4zm69 7.7c-2.8-0.41-4.6-2.7-4.6-5.7 0.016-3 2.6-5.4 5.7-5.4 4.5 0 7.1 4.7 4.8 8.6-1.1 1.9-3.3 2.9-5.8 2.5zm2.2-1.8c1.4-0.72 1.8-5 0.62-6.6-1.8-2.4-4.3-0.64-4.3 2.9-5.3e-4 1.7 0.28 2.6 1 3.4 0.58 0.58 1.8 0.71 2.7 0.28zm-96 1.5c-0.51-1.4-3.8-14-3.8-14 0-0.44 0.15-0.65 0.46-0.65 0.25-0.0016 0.89-0.073 1.4-0.16l0.94-0.16 1.4 6c0.79 3.3 1.5 5.9 1.5 5.9 0.044-0.044 0.38-1.1 0.76-2.4 0.37-1.3 1.1-3.9 1.7-5.7l1.1-3.4h2.5l1.5 5c0.82 2.7 1.6 5.3 1.7 5.7 0.092 0.4 0.25 0.73 0.35 0.73 0.098 0 0.83-2.6 1.6-5.8l1.4-5.8 1.2 0.18c0.66 0.098 1.2 0.22 1.3 0.26 0.049 0.048-0.86 3.4-2 7.4l-2.1 7.4-1.4 0.081c-0.77 0.045-1.5-0.03-1.6-0.17-0.14-0.14-0.93-2.5-1.8-5.3-0.84-2.8-1.6-5.1-1.6-5.2s-0.76 2.1-1.5 4.8c-0.78 2.7-1.5 5.2-1.6 5.4-0.18 0.36-0.57 0.46-1.7 0.46-0.92 0-1.5-0.12-1.6-0.33zm30-0.21-0.98-0.52 0.88-1.5 1.1 0.54c1.2 0.58 2.4 0.49 2.7-0.21 0.32-0.83-0.21-1.7-1.7-2.7-2-1.4-2.6-2.6-2.1-4 0.2-0.51 0.66-1.2 1-1.4 1.2-0.89 4-0.96 5.1-0.12 0.45 0.33 0.45 0.39 0.033 1-0.43 0.65-0.48 0.66-1.2 0.28-0.96-0.48-2-0.27-2.2 0.45-0.22 0.7-0.08 0.89 1.6 2.1 1.7 1.2 2.5 2.4 2.5 3.6 0.0011 0.96-0.78 2.1-1.9 2.6-1.1 0.56-3.6 0.48-4.8-0.15zm11 0.11c-1.1-0.75-1.4-1.9-1.4-5.5v-3.3l-0.73-0.084c-0.57-0.066-0.75-0.24-0.81-0.81-0.075-0.65-0.0014-0.73 0.73-0.73 0.8 0 0.81-0.026 0.81-1.3v-1.3l1.3-0.29c0.73-0.16 1.4-0.29 1.5-0.29 0.066 0 0.12 0.71 0.12 1.6v1.6h1.5c1.4 0 1.5 8e-3 1.5 0.79 0 0.79-0.015 0.79-1.5 0.79h-1.5v2.6c0 1.4 0.076 3 0.17 3.5 0.22 1.1 1.1 1.7 2 1.4 0.61-0.23 0.7-0.18 0.95 0.53 0.25 0.72 0.21 0.81-0.39 1-1.1 0.41-3.6 0.31-4.3-0.18zm10-0.14c-1.4-0.73-1.4-0.65-0.81-1.7l0.49-0.9 0.96 0.48c1.5 0.76 2.3 0.86 3.3 0.44 1-0.43 1.4-1.4 1-2.5-0.13-0.38-1.2-1.4-2.3-2.4-2.7-2.2-3.3-3-3.3-4.6 0-1.5 0.68-2.5 2.2-3.2 1.5-0.67 3.8-0.66 5.2 0.033 1.2 0.61 1.2 0.68 0.54 1.6-0.45 0.58-0.57 0.61-1.2 0.33-0.99-0.45-2.7-0.4-3.2 0.098-0.72 0.72-0.5 1.6 0.71 2.7 3.1 2.8 4.4 4.3 4.6 5.2 0.36 1.9-0.45 3.5-2.3 4.4-1.4 0.73-4.5 0.71-5.9-0.052zm12-0.1c-1.1-0.94-1.3-2-1.3-6.4l-1e-3 -3.8h2.9v3.4c0 3.9 0.31 5.1 1.4 5.4 0.89 0.22 1.9-0.19 2.3-0.94 0.21-0.38 0.38-2 0.44-4.2l0.11-3.6h2.9l-0.14 11-1.4 0.08c-1.3 0.077-1.4 0.055-1.4-0.6v-0.68l-0.99 0.67c-1.4 0.96-3.7 0.95-4.8-7e-3zm12-3.9v-4.6l-0.86-0.083c-0.72-0.069-0.87-0.2-0.94-0.81-0.078-0.67-0.013-0.73 0.86-0.73 0.92 0 0.94-0.024 0.94-1 0-1.4 0.36-2.3 1.2-3.1 0.61-0.57 0.95-0.65 2.6-0.65 1.5 0 1.9 0.085 1.9 0.38 0 0.91-0.33 1.2-1.3 1.2-1.2 0-1.6 0.49-1.6 2.1v1.1h1.3c1.3 0 1.3 0.019 1.3 0.73-0.077 0.67-0.19 0.73-1.3 0.81l-1.3 0.081v9.2h-2.9zm7.6 4.4c-0.1-0.1-0.19-2.2-0.19-4.6v-4.5h-0.79c-0.71 0-0.79-0.088-0.79-0.79 0-0.7 0.092-0.79 0.76-0.79 0.73 0 0.77-0.066 0.95-1.5 0.15-1.2 0.36-1.7 1.1-2.4 0.84-0.84 0.96-0.87 2.9-0.87 2 0 2 0.016 1.9 0.6-0.088 0.33-0.16 0.68-0.16 0.79-2e-3 0.11-0.46 0.2-1 0.2-1.3 0-1.6 0.37-1.6 1.9v1.3h1.2c1.1 0 1.2 0.029 1.2 0.79 0 0.76-0.045 0.79-1.2 0.79h-1.2l-0.14 9.1-1.3 0.078c-0.73 0.043-1.4-7e-3 -1.5-0.11zm20-0.012c-0.097-0.097-0.18-3.6-0.18-7.8v-7.6h2.9v16h-1.3c-0.7 0-1.4-0.079-1.5-0.18zm5.6-7.6v-7.8h2.9l0.14 9.1 1.7-2.1c0.93-1.2 1.8-2.2 1.9-2.3 0.18-0.22 2.1 0.58 2.1 0.87 0 0.089-0.65 0.93-1.5 1.9-0.8 0.94-1.5 1.8-1.5 1.9-2e-3 0.11 0.85 1.3 1.9 2.7 1.1 1.4 1.8 2.6 1.7 2.7-0.52 0.48-2.2 0.87-2.6 0.58-0.18-0.15-1.1-1.4-2-2.8l-1.7-2.5-0.15 5.6h-2.9z" style="stroke-width:.26"/>
</svg>
