<svg width="79.033mm" height="45.824mm" version="1.1" viewBox="0 0 79.033 45.824" xmlns="http://www.w3.org/2000/svg">
 <path d="m-0.61857-0.69763v47.096h80.735v-47.096h-80.735zm56.943 0.69453 0.53847 0.78186c0.29622 0.42995 1.8474 3.3144 3.4473 6.4099 5.9855 11.58 12.803 24.576 13.028 24.832 0.0628 0.071699 0.1142-6.7804 0.1142-15.227v-15.357l-1.6387-0.094568c-1.2665-0.073-1.6621-0.2189-1.7425-0.64182-0.0952-0.50094 0.28289-0.54725 4.4757-0.54725 4.1928 0 4.5705 0.046274 4.4752 0.54725-0.0821 0.43164-0.48276 0.56734-1.8986 0.6413l-1.7952 0.093534v44.386l-9.1333-0.17312-5.301-10.006c-2.9156-5.5032-6.0801-11.483-7.0321-13.289-6.8966-13.081-9.6507-18.135-9.8821-18.135 0.11686 11.981-0.185 24.357-0.22376 34.291-4e-3 2.7805 0.076905 5.2775 0.18138 5.5495 0.14101 0.36755 0.62897 0.49506 1.8991 0.49506 1.4595 0 1.694 0.079447 1.604 0.54674-0.0944 0.49-0.5624 0.54725-4.4747 0.54725-3.8615 0-4.3806-0.061438-4.471-0.53072-0.0852-0.44221 0.20192-0.5467 1.7157-0.62528l1.8175-0.094568 0.14831-8.1297-0.68316 0.93844c-1.9843 2.725-5.7128 5.267-9.6123 6.5536-4.8062 1.5857-6.8403 1.7884-19.401 1.9342-6.9522 0.0808-11.901 0.018694-12.156-0.154h-0.0010335c-0.84207-0.56783 0.011279-0.98547 2.0128-0.98547h2.0138v-43.12l-1.9508-0.093018c-1.5936-0.0761-1.9709-0.19722-2.0593-0.66094-0.1035-0.54307 0.49388-0.56269 13.755-0.44855l13.863 0.11937 2.9368 0.84543c4.6287 1.332 7.6827 3.0763 10.006 5.7154l1.2842 1.4593v-6.9355l-1.7947-0.094051c-1.4031-0.0733-1.817-0.21111-1.897-0.63149-0.0946-0.49679 0.58037-0.54433 8.8646-0.62528l8.9674-0.08785zm-39.155 1.4077v21.366c0 11.752 0.093696 21.46 0.20826 21.575 0.28664 0.28666 2.0686 0.25099 4.4158-0.088367h5.17e-4c5.5059-0.79621 8.2163-4.107 9.4749-11.574 0.58537-3.4728 0.64044-4.7672 0.50488-11.882-0.1261-6.6162-0.26004-8.4056-0.7798-10.441-1.684-6.5963-4.6179-8.9555-11.137-8.9555h-2.6877z" stroke-width="0"/>
</svg>
